<svg width="400" height="400" viewBox="0 0 400 400" fill="none" xmlns="http://www.w3.org/2000/svg">
<path d="M205.17 157.611C215.899 143.86 245.339 118.841 263.274 100.925C281.208 83.0084 298.938 68.2729 307.914 61.2444C325.494 47.4793 346.154 43.7315 352.002 45.0976C357.921 46.4806 358.392 75.203 355.606 95.4372C352.856 115.406 351.824 128.277 349.794 144.991C348.483 155.783 345.993 169.767 340.825 182.258C338.048 188.97 328.361 199.707 326.539 202.055C324.718 204.402 290.81 224.729 289.643 225.95" stroke="#2196F3" stroke-width="20" stroke-linecap="round"/>
<path d="M299.873 225.881C301.71 226.129 319.661 234.813 333.486 245.016C340.484 250.181 344.323 259.575 347.949 267.186C351.604 274.859 352.477 287.574 352.945 300.929C353.58 319.106 339.811 342.005 334.874 348.775C330.535 354.724 320.904 354.305 298.359 353.818C283.193 353.491 267.963 347.163 255.762 342.445C250.995 340.479 249.119 339.384 242.237 333.803C235.356 328.223 223.524 318.191 209.45 306.789" stroke="#2196F3" stroke-width="20" stroke-linecap="round"/>
<path d="M193.681 151.284C182.621 137.797 159.933 115.515 141.568 98.0395C123.203 80.5643 109.224 69.1844 100.079 62.3761C82.17 49.0424 49.9003 48.4855 44.0879 49.9933C38.2033 51.5198 41.9626 67.0919 44.5422 87.3659C47.4148 109.942 50.7316 133.437 54.9747 148.576C59.9375 166.282 62.932 175.281 66.0805 184.933C68.3431 191.87 74.9148 201.962 76.7926 204.265C78.6705 206.567 106.048 227.015 107.244 228.208" stroke="#2196F3" stroke-width="20" stroke-linecap="round"/>
<path d="M106.847 228.228C105.016 228.52 94.9866 236.135 81.4139 246.671C74.5437 252.004 63.2296 262.992 59.79 270.689C56.3226 278.448 48.6977 290.928 48.5553 304.29C48.3614 322.478 78.3153 340.15 85.2519 344.518C94.607 350.409 102.436 350.314 122.161 350.074C137.329 349.89 141.696 348.698 153.779 343.685C158.497 341.604 160.345 340.463 167.089 334.717C173.833 328.971 175.45 327.652 189.243 315.912" stroke="#2196F3" stroke-width="20" stroke-linecap="round"/>
</svg>
