<svg width="400" height="400" viewBox="0 0 400 400" fill="none" xmlns="http://www.w3.org/2000/svg">
<path d="M82.418 57.2361C82.418 57.2776 82.418 57.3191 82.9642 94.1832C83.5103 131.047 84.6027 204.733 85.7282 280.651" stroke="#2196F3" stroke-width="20" stroke-linecap="round"/>
<path d="M87.9131 47.4783C89.1778 47.4783 98.0984 48.7513 140.32 51.3868C175.926 52.7492 240.322 54.1624 284.277 53.3399C328.231 52.5175 349.794 49.4166 375.317 45.9126" stroke="#2196F3" stroke-width="20" stroke-linecap="round"/>
<path d="M375.317 45.9126C375.317 46.1976 375.317 46.4826 377.017 85.8771C378.718 125.272 396.567 265.207 377.017 345.491" stroke="#2196F3" stroke-width="20" stroke-linecap="round"/>
<path d="M202.458 150.179C202.992 149.208 207.334 142.81 210.491 139.713C210.926 139.286 211.725 139.394 212.514 139.501C214.23 139.735 218.135 142.937 225.051 148.569C228.838 151.653 233.616 154.646 237.625 156.448C241.634 158.249 244.839 158.627 247.625 157.21C258.239 151.81 258.387 145.724 262.135 143.309C265.622 141.062 269.214 141.326 272.131 141.612C279.926 142.377 289.898 150.566 291.234 150.804C296.977 151.823 305.95 140.025 309.54 138.662C313.197 137.274 317.842 139.574 325.328 140.888C327.927 141.074 331.244 141.085 334.436 140.769C337.628 140.452 340.595 139.809 343.651 139.145" stroke="#2196F3" stroke-width="20" stroke-linecap="round"/>
<path d="M202.205 245.355C202.693 243.934 205.141 239.688 208.585 236.527C211.68 233.685 217.348 234.506 222.414 235.779C226.847 236.892 233.279 242.389 240.575 247.444C246.529 251.569 248.979 251.62 251.34 251.636C255.877 251.668 262.762 243.636 266.913 240.295C269.785 237.983 273.154 237.989 275.581 237.901C283.382 237.62 292.107 249.114 294.134 249.699C295.154 249.994 297.758 249.172 305.318 245.995C310.91 243.646 319.86 239.319 325.393 236.929C332.606 233.814 335.113 233.59 336.598 233.848C338.86 234.812 342.4 237.241 346.071 240.1C347.564 241.208 348.306 241.621 349.636 242.278" stroke="#2196F3" stroke-width="20" stroke-linecap="round"/>
<path d="M86.124 293.076C84.1769 307.405 81.5108 321.756 78.1586 327.407C71.9634 337.85 68.6366 345.065 59.7235 350.66C54.9942 353.629 43.655 351.255 38.509 349.533C31.8343 347.299 24.1702 338.457 20.2693 328.55C15.4981 316.433 14.8732 305.023 13.9983 286.761C13.4758 275.856 15.16 267.323 17.9283 257.255C20.9188 246.379 25.6477 238.822 29.429 233.44C38.0258 221.205 47.0393 217.001 53.2679 213.988C59.6948 210.88 64.8438 213.236 68.8985 215.6C73.4982 218.281 75.5174 226.436 76.0884 242.349C76.4993 253.799 74.0446 275.415 73.0591 287.702C71.6056 305.825 65.5554 312.793 59.7235 318.48C57.7489 320.406 54.9213 320.986 52.2221 321.364C49.8737 321.693 47.5334 320.468 45.3602 318.849C40.504 315.232 37.4912 307.581 34.8575 298.54C29.3859 279.758 33.2724 266.167 34.315 261.983C35.4421 257.461 37.2622 251.205 39.7366 248.731C41.8355 246.632 46.7517 242.349 51.3786 242.349C54.65 242.349 58.3639 255.57 57.6363 265.466C57.3911 268.801 54.6025 280.902 54.5351 293.076" stroke="#2196F3" stroke-width="20" stroke-linecap="round"/>
<path d="M67.6228 354.087C67.8165 354.087 69.2429 354.058 89.2265 349.98C107.932 346.163 143.83 337.864 175.354 333.407C206.879 328.951 232.891 328.35 256.128 329.762C279.364 331.174 299.036 334.617 314.733 337.814C330.43 341.012 341.555 343.86 348.895 345.607C356.235 347.355 359.453 347.916 361.696 348.495C363.939 349.075 365.11 349.655 367.09 350.556" stroke="#2196F3" stroke-width="20" stroke-linecap="round"/>
<path d="M117.015 149.909H162.196" stroke="#2196F3" stroke-width="20" stroke-linecap="round"/>
<path d="M119.669 251.067C119.752 251.067 119.834 251.067 128.638 251.067C137.442 251.067 154.965 251.067 174.056 251.325" stroke="#2196F3" stroke-width="20" stroke-linecap="round"/>
</svg>
