<svg width="400" height="400" viewBox="0 0 400 400" fill="none" xmlns="http://www.w3.org/2000/svg">
<path d="M95.1267 150.689C95.1267 150.958 95.1267 151.228 95.1665 180.869C95.2063 210.51 95.2858 269.514 95.488 300.768C95.6903 332.021 96.0128 333.736 96.3752 335.798" stroke="#2196F3" stroke-width="20" stroke-linecap="round"/>
<path d="M95.1267 148.849H114.166" stroke="#2196F3" stroke-width="20" stroke-linecap="round"/>
<path d="M133.148 148.849C133.148 148.954 133.148 149.06 133.731 179.325C134.313 209.59 135.478 270.011 135.444 300.647" stroke="#2196F3" stroke-width="20" stroke-linecap="round"/>
<path d="M100.806 333.837H128.742" stroke="#2196F3" stroke-width="20" stroke-linecap="round"/>
<path d="M92.1717 83.4468C93.5748 79.9143 105.09 69.3563 114.687 69.3564C122.807 69.3564 134.987 76.6616 137.761 83.4468C139.76 88.3338 139.635 98.3595 137.761 102.206C132.77 112.456 125.405 115.413 118.747 115.494C109.655 115.604 99.9271 113.608 95.3116 106.686C91.7593 101.359 87.9957 93.9608 92.1717 83.4468Z" stroke="#2196F3" stroke-width="20" stroke-linecap="round"/>
<path d="M166.776 153.277C166.776 153.914 166.776 154.551 166.8 182.876C166.825 211.201 166.874 267.195 166.941 296.767C167.008 326.339 167.093 327.792 167.583 333.194" stroke="#2196F3" stroke-width="20" stroke-linecap="round"/>
<path d="M167.583 333.194C167.634 333.194 167.685 333.194 172.357 333.194C177.03 333.194 186.322 333.194 199.113 332.83" stroke="#2196F3" stroke-width="20" stroke-linecap="round"/>
<path d="M172.557 150.385C172.661 150.385 172.765 150.385 174.377 150.385C175.989 150.385 179.106 150.385 182.385 150.132C185.663 149.878 189.007 149.371 194.97 148.849" stroke="#2196F3" stroke-width="20" stroke-linecap="round"/>
<path d="M202.779 151.993C202.779 152.097 202.779 152.2 202.779 154.612C202.779 157.024 202.779 161.74 202.903 164.883C203.027 168.026 203.276 169.452 203.531 170.921" stroke="#2196F3" stroke-width="20" stroke-linecap="round"/>
<path d="M203.67 171.026C203.989 169.246 226.039 154.575 244.357 152.39C267.823 149.592 276.952 154.265 283.506 156.837C293.867 160.902 300.154 171.625 308.648 187.176C312.966 195.082 315.148 202.746 319.519 219.477C323.889 236.208 325.113 255.657 326.638 272.321C328.163 301.846 328.696 318.558 329.578 324.999C329.926 327.976 330.074 330.361 330.226 332.818" stroke="#2196F3" stroke-width="20" stroke-linecap="round"/>
<path d="M205.617 329.53C205.617 329.329 205.684 307.031 206.181 271.887C206.502 249.187 210.17 220.633 223.547 211.402C231.312 206.044 247.675 202.549 260.147 206.044C272.62 209.538 278.186 221.649 280.695 228.174C285.354 240.286 286.615 289.147 290.243 310.972" stroke="#2196F3" stroke-width="20" stroke-linecap="round"/>
<path d="M303.531 332.272C303.584 332.272 303.636 332.272 307.464 332.282C311.291 332.292 318.892 332.312 330.226 332.819" stroke="#2196F3" stroke-width="20" stroke-linecap="round"/>
<path d="M38.0911 79.7488C38.0911 79.8074 38.0911 79.8661 37.9261 127.717C37.7611 175.567 37.4311 271.208 37.0911 369.748" stroke="#2196F3" stroke-width="20" stroke-linecap="round"/>
<path d="M37.0911 369.748C37.3212 369.748 37.5513 369.748 84.1412 369.545C130.731 369.342 223.685 367.484 272.994 368.571C326.313 369.748 345.434 365.882 355.526 361.102" stroke="#2196F3" stroke-width="20" stroke-linecap="round"/>
<path d="M44.0779 59.7654C44.0862 56.9825 44.706 49.963 48.7552 42.8514C50.5305 39.7334 53.4247 37.7199 59.3231 35.1127C63.5619 33.239 70.8566 31.5752 94.4958 30.2679C118.135 28.9605 158.032 28.3994 194.948 29.8006C231.864 31.2017 311.068 33.0967 328.924 35.1127" stroke="#2196F3" stroke-width="20" stroke-linecap="round"/>
<path d="M348.436 40.8809C348.592 40.8809 350.926 40.9091 354.958 41.3416C358.176 41.6869 360.408 45.0858 362.526 49.0957C363.668 51.2579 364.179 54.0425 364.725 81.1647C365.27 108.287 365.639 159.756 367.279 207.727C368.918 255.698 371.816 298.613 374.803 342.828" stroke="#2196F3" stroke-width="20" stroke-linecap="round"/>
</svg>
