<svg width="400" height="400" viewBox="0 0 400 400" fill="none" xmlns="http://www.w3.org/2000/svg">
<path d="M109.061 130.474C108.638 130.474 106.592 131.352 89.6741 145.036C74.2863 157.483 46.2887 182.549 30.9394 195.847C15.5901 209.144 14.0446 210.284 31.6301 220.418C49.2156 230.553 85.9788 249.648 123.312 269.526" stroke="#2196F3" stroke-width="20" stroke-linecap="round"/>
<path d="M234.349 106.899C234.349 107.034 234.349 107.17 234.254 108.4C234.158 109.631 233.968 111.953 222.838 142.253C211.709 172.553 189.648 230.761 166.373 293.101" stroke="#2196F3" stroke-width="20" stroke-linecap="round"/>
<path d="M282.728 130.474C282.918 130.529 283.109 130.585 299.652 142.882C316.195 155.18 349.085 179.716 366.076 192.918C383.066 206.12 383.161 207.244 378.287 212.373C373.414 217.502 363.569 226.602 345.979 239.951C328.389 253.299 303.351 270.619 277.41 288.135" stroke="#2196F3" stroke-width="20" stroke-linecap="round"/>
</svg>
