<svg width="400" height="400" viewBox="0 0 400 400" fill="none" xmlns="http://www.w3.org/2000/svg">
<path d="M14.6664 142.309C14.6897 142.44 14.713 142.57 20.178 173.389C25.6429 204.208 36.5487 265.71 47.5559 330.555" stroke="#2196F3" stroke-width="20" stroke-linecap="round"/>
<path d="M21.2429 131.306C21.2911 131.297 21.3393 131.289 73.0652 120.535C124.791 109.78 228.193 88.2809 334.78 65.4545" stroke="#2196F3" stroke-width="20" stroke-linecap="round"/>
<path d="M351.198 62.5257C351.149 62.5344 351.1 62.5431 356.661 93.8201C362.223 125.097 379.494 224.013 386.123 258.311" stroke="#2196F3" stroke-width="20" stroke-linecap="round"/>
<path d="M39.5455 140.515C39.754 141.074 43.0834 143.858 66.4903 157.402C86.4065 168.927 123.725 187.971 148.596 199.664C184.245 216.426 198.302 218.102 203.18 216.2C206.958 214.727 212.377 210.11 225.469 198.552C238.561 186.993 258.905 168.093 274.469 152.763C290.034 137.433 300.203 126.246 308.614 116.305C323.369 98.0107 333.403 86.146 339.664 80.5891" stroke="#2196F3" stroke-width="20" stroke-linecap="round"/>
<path d="M58.0725 333.719C58.3189 333.667 58.5652 333.615 109.652 323.263C160.739 312.911 262.659 292.259 316.002 281.412C369.344 270.564 371.02 270.146 372.398 269.571C373.776 268.995 374.804 268.275 376.505 266.838" stroke="#2196F3" stroke-width="20" stroke-linecap="round"/>
</svg>
